<svg xmlns="http://www.w3.org/2000/svg" width="72" height="72" viewBox="0 0 72 72">
    <g fill="none" fill-rule="evenodd">
        <g>
            <g>
                <path fill="#DB0007" d="M36 0c19.883 0 36 16.118 36 36S55.883 72 36 72 0 55.882 0 36 16.117 0 36 0z" transform="translate(-136.000000, -29.000000) translate(136.000000, 29.000000)"/>
                <path fill="#FEC835" d="M42.875 17.286C45.981 17.286 48.5 30.59 48.5 47H53c0-17.673-4.533-32-10.125-32-3.18 0-6.018 4.306-7.875 11.04C33.145 19.305 30.306 15 27.125 15 21.534 15 17 29.327 17 47h4.5c0-16.41 2.52-29.714 5.625-29.714 3.107 0 5.625 12.28 5.625 27.428h4.5c0-15.147 2.52-27.428 5.625-27.428" transform="translate(-136.000000, -29.000000) translate(136.000000, 29.000000)"/>
                <g fill="#FEFEFE">
                    <path d="M9.587 4.201c0 .512-.478.927-1.069.927-.59 0-1.07-.415-1.07-.927 0-.511.48-.927 1.07-.927.59 0 1.07.416 1.07.927M13.58 4.815c0 .513-.478.927-1.069.927-.59 0-1.07-.414-1.07-.927 0-.511.48-.926 1.07-.926.59 0 1.07.415 1.07.926M17.573 5.073c0 .512-.479.927-1.07.927-.59 0-1.069-.415-1.069-.927 0-.511.479-.927 1.07-.927.59 0 1.069.416 1.069.927M21.566 5.073c0 .512-.479.927-1.07.927-.59 0-1.07-.415-1.07-.927 0-.511.48-.927 1.07-.927.591 0 1.07.416 1.07.927M25.558 4.815c0 .513-.478.927-1.07.927-.59 0-1.068-.414-1.068-.927 0-.511.478-.926 1.069-.926.59 0 1.07.415 1.07.926M29.551 4.201c0 .512-.478.927-1.07.927-.59 0-1.069-.415-1.069-.927 0-.511.48-.927 1.07-.927.59 0 1.07.416 1.07.927M2.754 0C1.233 0 0 1.069 0 2.387s1.233 2.386 2.754 2.386 2.754-1.068 2.754-2.386S4.275 0 2.754 0m0 .708c1.068 0 1.937.753 1.937 1.679 0 .448-.201.87-.567 1.187-.366.316-.853.49-1.37.49-1.068 0-1.936-.752-1.936-1.677 0-.449.2-.87.566-1.187.366-.317.852-.492 1.37-.492M37 2.387c0 1.318-1.233 2.386-2.754 2.386-1.522 0-2.755-1.068-2.755-2.386S32.724 0 34.246 0C35.767 0 37 1.069 37 2.387" transform="translate(-136.000000, -29.000000) translate(136.000000, 29.000000) translate(17.000000, 51.000000)"/>
                </g>
            </g>
        </g>
    </g>
</svg>
